<svg xmlns="http://www.w3.org/2000/svg" viewBox="0 0 1458.75 454.91" preserveAspectRatio="xMinYMin meet">
    <defs>
        <clipPath id="clip-Web_1920_1">
            <rect width="1458.75" height="454.91"/>
        </clipPath>
    </defs>
    <g id="Web_1920_1" data-name="Web 1920 – 1" clip-path="url(#clip-Web_1920_1)">
        <g id="Janitos" transform="translate(-1.061 -1.091)">
            <path id="Pfad_1" data-name="Pfad 1" d="M942,456H1.061V1.091H1459.814V456H942M267.293,354.912c6.313-2.479,12.962-4.349,18.851-7.6,6.87-3.789,13.706-2.091,21.035-2.487v8.925c11.338,0,22.3-.244,33.253.112,4.881.159,6.51-.9,6.463-6.212-.284-32.15-.1-64.3-.188-96.456a118.775,118.775,0,0,0-1.032-15.906c-8.1-58.509-58.871-98.884-115.2-95.521a107.432,107.432,0,0,0-53.288,17.54c-49.469,32.346-64.368,97.129-34.283,148.421,24.55,41.855,77.516,62.979,124.391,49.183m591.846-33.57c28.591,31.182,63.915,43.768,105.3,35.352,48.644-9.891,83.427-50.071,87.159-99.377,2.035-26.887-4.722-51.859-21.2-73.49-27.105-35.574-63.406-50.347-107.316-43.282-33.633,5.412-59.375,24.117-76.457,53.772a106.686,106.686,0,0,0-13.805,67.129c2.62,22.407,11.267,42.176,26.317,59.9M371.245,303.5v50.028h37.51c0-2,0-3.788,0-5.576.082-34.486.111-68.972.27-103.457.092-19.847,7.51-36.5,22.4-49.709,32.054-28.426,82.906-18.8,102.357,19.322,5.566,10.91,7.456,22.444,7.317,34.675-.375,33.151-.241,66.309-.291,99.464,0,1.745.15,3.491.243,5.5,11.867,0,23.178-.057,34.487.04,2.832.024,3.252-1.405,3.238-3.745-.218-36.472-.044-72.95-.68-109.413-.545-31.249-13.622-57.012-37.765-76.556-29.634-23.989-63.428-30.128-99.279-17.664-43.756,15.213-69.809,53.788-69.809,100.1,0,18.662,0,37.324,0,56.986m362.089-18.355A59.052,59.052,0,0,1,720.051,247.9c-.268-18.826-.213-37.656-.295-56.484-.008-1.765,0-3.53,0-5.659H822.326c1.333,0,2.777.3,3.965-.12.973-.343,2.329-1.541,2.34-2.375.153-11.62.1-23.243.1-35.482H719.615V106.384H680c0,7.359-.012,14.336,0,21.313.079,38.494.432,76.99.149,115.481-.177,24.075,5.949,45.964,20.048,65.5,17.032,23.6,39.855,38.985,68.6,43,18.658,2.6,37.833,1.484,56.774,2.109,3.357.111,3.209-1.979,3.2-4.259-.028-10.333-.174-20.67.072-31,.09-3.79-1.5-4.372-4.731-4.334-11.664.139-23.332.09-35,.033-3.655-.018-7.537.465-10.924-.565-17.294-5.258-32.759-13.622-44.852-28.514M12.068,405.7c20.491-2.286,39.484-8.63,56.052-21.193,24.662-18.7,39.341-43.442,40.373-74.436,1.2-36.1.538-72.263.452-108.4-.035-14.56-4.182-27.924-14.152-38.889-10.528-11.578-23.8-17.294-39.572-17.844v40.294c11.949,3.715,15.028,7.8,15.013,20.242-.039,32.638.185,65.281-.34,97.912-.441,27.4-13.589,47.165-38.838,57.871-8.656,3.671-18.355,4.883-28,7.326v37.157c2.864,0,5.485,0,9.015-.042M1117,345.615c10.586-6.411,17.885-15.691,20.86-27.494a133.468,133.468,0,0,0,4.154-29.4c.68-30.624.532-61.266.747-91.9.073-10.34,4.6-16.583,13.3-18.312a31.12,31.12,0,0,1,5.956-.3q16.9-.037,33.771-.012V138.856c-13.733,0-27.088-.6-40.366.156-15.7.893-29.457,6.921-39.193,19.805-8.39,11.1-11.732,24.168-11.9,37.852-.4,32.476-.338,64.957-.546,97.436-.077,11.987-4.6,21.134-20.3,20.215-7.305-.427-14.656-.073-21.987-.073h-11.227v39.506c12.217,0,24.174-.163,36.125.048,10.776.19,20.6-2.841,30.613-8.186M1367.15,90.607c.2-3.48.561-6.959.575-10.439.063-15.833.027-31.666.027-47.5q0-13.25.007-26.5c0-2.1.149-4.094-2.991-3.875-19.01,1.323-36.4,7.012-51.61,18.792a88.626,88.626,0,0,0-22.783,114.248c8.98,15.732,6.806,13.559,21.308,11.514,29.348-4.139,52.5-27.564,55.466-56.241M615.8,353.759h34.96v-6.173c0-47.828.068-95.657-.084-143.484a94.36,94.36,0,0,0-1.9-18.283c-4.652-23-28.9-42.008-51.516-40.55V185.44c10.9,2.845,14.606,6.773,14.709,17.837.313,33.657.222,67.319.271,100.979.022,15.165-.011,30.33.024,45.5,0,1.812-.824,4.348,3.538,4.009m810.247-196.181a89.15,89.15,0,0,0,8.581-125.058A84.5,84.5,0,0,0,1406.8,11.076c0,2.5,0,4.3,0,6.09,0,21.156.041,42.312-.009,63.468-.08,33.893-13.2,61.569-40.016,82.4-6.557,5.094-13.9,9.175-21.19,13.924,29.931,6.7,56.445.4,80.459-19.383m-777.2-31.5.644-1.877a21.384,21.384,0,0,0-5.863-23.191c-7.04-6.065-15-7.576-23.651-3.807-7.575,3.3-12.9,12.005-12.726,20.484.191,9.469,7.739,18.694,17.1,20.907,9.416,2.225,19.029-2.495,24.492-12.517M69.37,105c-7.011,9.523-4.773,27.633,11.387,32.933,10.875,3.567,21.794-1.7,26.359-12.076A21.873,21.873,0,0,0,98.5,98.389C88.536,92.5,76.963,94.922,69.37,105M773.259,421.474c-4.694-6.122-8.342-6.07-17.97.323-5.191-7.6-11.051-5.025-16.917-.74l-1.743-3.96-4.074,1.132v33.213h5.463c0-7.342-.031-14.459.013-21.575.024-3.887,4.02-7.7,8.118-7.532,4.728.193,4.106,3.932,4.141,6.982.083,7.271.027,14.543.027,22.081h5.7c0-7.005-.014-13.788.005-20.57.012-4.217,4.293-8.98,8.211-8.741,5.194.318,4.43,4.482,4.476,7.851.1,7.1.03,14.21.03,21.733l5.015-.231c0-10.133,0-19.74-.5-29.964M479.7,418.515V405.556h-5.593a14.035,14.035,0,0,0-.362,2.143c-.009,10.827-.12,21.656.071,32.48a11.88,11.88,0,0,0,9.525,11.755c8.5,1.678,17.166-.878,19.736-5.877a6.67,6.67,0,0,0,.892-2.835c.059-12.455.039-24.91.039-37.542H498.3c0,11,.042,21.636-.016,32.267-.036,6.545-2.363,8.956-8.433,9.023-7.511.083-9.949-1.982-10.113-8.972-.145-6.16-.032-12.326-.033-19.484m497.289,24.844c4.949,7.258,12.08,9.818,20.382,8.488,3.245-.52,8.511-2.483,8.855-4.478,1.13-6.554.425-13.425.425-20.1H990.626l1.9,4.946h8.46c0,3.942.131,7.581-.082,11.2a4.051,4.051,0,0,1-1.747,2.959c-6.344,3.067-15.793-.66-17.375-7.534a44.889,44.889,0,0,1-.821-16.607c1.946-12.446,10.535-16.01,21.194-9.518.233.142.61.047,1.141.074l2.144-3.079c-7.828-6.94-19.43-6.752-25.864,1.095-7.992,9.746-7.149,20.761-2.58,32.555M715.733,424.052a45.65,45.65,0,0,1,.972,6.322c.124,6.95.047,13.9.047,21.278l5.271-.234c0-9.147.074-17.785-.033-26.421-.049-3.986-2.309-7.092-6.161-7.165-4.365-.082-8.758,1.256-13.774,2.081V402.217l-5.351,1.192V451.3h5.545c0-6.666-.019-12.975.005-19.284.027-7.132,5.939-11.1,13.48-7.967m157.943-5.079c-8.16,4.9-8.9,17.794-5.556,25.643a11.41,11.41,0,0,0,10.866,7.313c5.064.074,10.071-2.531,15.234-.452.075.03.252-.192-.025.032V402.994h-5.831v15.12c-4.937.217-9.456.415-14.687.86M383.534,405.3H373.186v46.036h25.837l-.291-5.112H379.364V429.784h15.417l-.489-5.065H379.339V410.26h18.483V405.3H383.534m690.758,24.2v21.9h5.74c0-6.926-.025-13.551.008-20.176.022-4.508,4.663-9.025,9.358-8.878,5.561.173,4.792,4.54,4.856,8.06.126,6.932.037,13.868.037,21.276l5.731-.271c0-9.041.394-17.679-.246-26.239-.186-2.491-2.869-5.477-5.212-6.987-5.148-3.316-9.582.876-15.109,3.171V402.426l-5.163.828c0,8.657,0,16.951,0,26.246m47.351-7.481c5.755.464,6.7,1.867,5.515,7.845-4.381.991-8.834,1.49-12.886,3.04-5.256,2.01-7.457,7.206-6.207,12.628.945,4.1,5.008,7.033,10.367,6.611,3.267-.258,6.444-1.663,10.167-2.693-.13-.173.083.4.477.584,1.485.679,3.5,2.132,4.453,1.637,1.932-1,2.013-2.891.244-4.858-.814-.906-.706-2.791-.725-4.236-.07-5.477.125-10.961-.056-16.432-.195-5.878-3.592-9.49-9.426-9.006-4.957.411-9.8,2.169-15.554,3.535l3.432,4.345c3.479-1.114,6.421-2.056,10.2-3m44.428,14c5.268-1.32,2.012-5.145,1.98-7.7-.071-5.658-3.473-9.073-8.8-10.695-5.132-1.561-9.441-.252-13.177,3.491-4.766,4.776-4.627,10.755-4.205,16.793.9,12.922,12.912,17.172,22.794,12.36,3.284-1.6,3.743-3.364.637-5.691-4.014,3.214-8.418,3.795-12.731,1.615-3.8-1.921-4.92-5.606-4.354-10.169,5.655,0,11.3,0,17.858,0m-383.492.1c.7,16.043,14.109,18.624,23.238,14.091,3.038-1.508,3.555-3.188.382-5.438-4.251,2.945-8.875,3.849-13.393,1-3.366-2.124-4.216-5.608-3.547-9.781h20.459c-.25-2.93-.493-5.485-.681-8.045-.39-5.31-3.579-8.337-8.254-10.125-4.832-1.848-9.125-.736-12.945,2.55-4.589,3.949-5.222,9.376-5.258,15.751m145.389-.121c.309-.107.8-.127.9-.335,2.194-4.6-.171-13.264-4.39-16.222a13.4,13.4,0,0,0-16.61.874c-5.408,4.957-5.556,11.38-4.941,17.942,1.234,13.165,13.484,16.729,23.088,11.87,3.154-1.6,3.085-3.432.306-5.564-4.3,3.373-8.948,3.951-13.47,1.112-3.329-2.091-4.329-5.525-3.562-9.651,6.134,0,11.955,0,18.68-.026M681.456,446.387c-9.566,2.541-14.526-1.074-13.872-10.681h20.679c-.391-3.04-.772-5.471-1-7.917-.544-5.713-4.039-9.09-9.169-10.461-5.17-1.381-9.82.2-13.381,4.411-5.1,6.036-5.31,18.592-.414,25.258,5.016,6.829,17.182,6.993,23.519-.942a39.249,39.249,0,0,0-6.358.33m-102.187-.949-4.511-9.415h22.135c-.332-3.347-.563-5.954-.855-8.555-.614-5.477-4.013-8.655-9.008-10.044a12.279,12.279,0,0,0-13.413,4.268c-4.783,5.752-4.519,12.471-3.083,19.315,2.37,11.3,14.246,13.331,22.334,9.194,3.05-1.56,3.319-3.27.563-5.649-4.227,3.371-8.743,3.534-14.161.886M824.024,439.5c0-3.5-.085-7,.027-10.491.1-3.28,5.03-7.093,8.937-6.945,4.179.159,4.447,3.418,4.686,6.422.211,2.648.054,5.326.055,7.99,0,4.939,0,9.879,0,15.235l5.538-.328c0-8.319.084-16.129-.022-23.936-.123-9.045-7.116-13.052-14.985-8.666-1.278.712-2.475,1.569-4.024,2.561-.787-4.447-3.25-4.422-5.784-3.09v33.48l5.571-.332V439.5m216.354-17.323c-5.306-7.989-19.422-6.753-23.269,2a24.6,24.6,0,0,0-.4,19.749c2.3,5.707,6.966,8.483,13.376,8.327,5.837-.142,10.669-3.387,12.518-8.913,2.359-7.048,2.126-14-2.222-21.16m-508.438.527c.784,2.18,2.156,4.337,2.243,6.544.287,7.27.108,14.558.108,22.046h5.74c0-8.885.42-17.4-.248-25.832-.209-2.635-2.847-5.814-5.259-7.385-4.919-3.206-9.032.582-13.331,3.014l-1.949-3.923-4.017,1.224v33.3l5.187-.269a5.658,5.658,0,0,0,.541-1.356q.061-8.736.073-17.472c.01-7.421,2.518-9.963,10.911-9.891m-86.231-2.815c-5.874-5.109-11.344-2.447-16.811,1.35l-1.456-4-4.55,1.085v32.941h5.813c0-7.068-.015-13.712.005-20.356.015-5.006,4.141-9.249,9.116-8.671,1.516.176,3.7,2.353,3.976,3.9.668,3.722.436,7.614.479,11.438.052,4.6.012,9.194.012,14.161l5.737-.31c0-8.578.116-16.727-.081-24.868-.05-2.042-1.107-4.059-2.24-6.669m201.266,27.354.308,4.553,5.41-.513c0-7.79-.517-15.143.131-22.391.814-9.1-6.476-15.232-16.1-9.641L633.55,421.1l-1.911-4.141-3.824,1.364v33.437l5.458-.379c0-7.61-.083-14.905.036-22.2.057-3.479,4.962-7.392,8.828-7.1,4.152.312,4.909,3.215,4.86,6.745-.08,5.823-.022,11.648-.021,18.42m412.339-30.67c.138-2.561.277-5.121.426-7.882l-5.464.6-.86,8.2-5.775,1.145,5.666,5.723c0,2.807-.071,6.948.02,11.086s-.139,8.369.656,12.384c.886,4.475,4.942,4.942,8.674,4.605,2.13-.192,5.519-.082,3.931-4.43-3.063-.332-7.505,1.2-7.545-4.356-.049-6.967-.012-13.934-.012-20.711,2.739-1.752,8,1.478,7.865-4.663a23.056,23.056,0,0,1-7.582-1.71M558.67,417.966l-2.363-9.279c-6.744-.774-4.564,5.128-5.434,8.206l-4.125,2.932,4.229,4.462c0,5.613-.042,12.572.012,19.529.054,7.009,3.229,9.7,10.068,8.37,1.342-.26,2.51-1.419,3.759-2.164a35.565,35.565,0,0,1-3.781-2.075c-1.495-1.058-4-2.262-4.063-3.511-.389-7.235-.19-14.5-.19-21.459,2.99-1.67,8.192,1.329,7.732-5-1.663,0-3.315,0-5.844-.01m47.076,6.645V451.4h5.5c0-7.054.06-13.856-.022-20.656-.051-4.173,2.159-7.09,5.894-7.447,4.368-.417,4.115-3.169,5.31-7.533L611.3,420.548l-1.462-3.564-5.05,1.551c.34,1.879.633,3.5.962,6.075m346.591-1.647,3.146-5.136-1.118-1.548-10.117,4.256L942.7,417.1l-4.123,1.114v33.153h5.668c0-6.748.145-13.205-.046-19.652-.156-5.262,2.173-8.094,8.134-8.748m225.413,6.6V451.4h5.264c0-6.864.085-13.474-.031-20.08-.071-4.058,1.789-7.288,5.477-7.818,4.154-.6,4.826-2.96,5.817-7.523l-11.014,4.344-1.6-3.269-4.767,1.39c.3,3.574.579,6.859.856,11.116m-765.539,11.9V417.018l-5.125,1.262v32.972h5.125c0-3.2,0-6,0-9.789m-1.125-29.645c.814-1.884,2.261-3.8,2.167-5.639-.045-.871-3.247-2.467-4.628-2.13-1.346.328-3.4,3.381-3.023,4.044C406.539,409.754,408.674,410.74,411.085,411.817Z" fill="none"/>
            <path id="Pfad_2" data-name="Pfad 2" d="M266.888,354.965c-46.47,13.743-99.436-7.381-123.986-49.236-30.086-51.292-15.187-116.075,34.283-148.421a107.432,107.432,0,0,1,53.288-17.54c56.331-3.363,107.1,37.012,115.2,95.521a118.775,118.775,0,0,1,1.032,15.906c.092,32.152-.1,64.306.188,96.456.047,5.314-1.583,6.371-6.463,6.212-10.948-.356-21.915-.112-33.253-.112v-8.925c-7.329.4-14.165-1.3-21.035,2.487-5.889,3.248-12.538,5.118-19.256,7.65m-80.723-57.637c22.52,22.535,53.643,27.93,81.55,14.5a33.92,33.92,0,0,1,12.753-2.894c8.739-.437,17.516-.131,26.335-.131,0-21.99.112-43.291-.095-64.59a48.491,48.491,0,0,0-2.061-12.738C290.6,182.6,234.237,164.7,195.6,193.147,162.331,217.64,157.583,266.512,186.165,297.328Z" fill="#e75214"/>
            <path id="Pfad_3" data-name="Pfad 3" d="M858.892,321.086a109.911,109.911,0,0,1-26.07-59.64,106.686,106.686,0,0,1,13.805-67.129c17.083-29.655,42.824-48.36,76.457-53.772,43.91-7.065,80.21,7.708,107.316,43.282,16.481,21.631,23.239,46.6,21.2,73.49-3.732,49.306-38.516,89.486-87.159,99.377-41.39,8.416-76.713-4.17-105.552-35.608M982.5,306.057c23.355-17.027,34.176-45.134,27.879-72.41-8.422-36.478-43.192-59.7-80.358-53.675-33.31,5.4-59.617,36.916-58.217,70.094,1.144,27.114,13.576,47.89,37.456,60.572C933.918,323.732,958.494,321.846,982.5,306.057Z" fill="#e75213"/>
            <path id="Pfad_4" data-name="Pfad 4" d="M371.245,303c0-19.162,0-37.824,0-56.486,0-46.312,26.054-84.887,69.809-100.1,35.851-12.465,69.645-6.325,99.279,17.664,24.143,19.544,37.22,45.306,37.765,76.556.636,36.464.462,72.942.68,109.413.014,2.339-.405,3.769-3.238,3.745-11.309-.1-22.62-.04-34.487-.04-.093-2.013-.246-3.759-.243-5.5.051-33.155-.083-66.312.291-99.464.138-12.231-1.751-23.764-7.317-34.675-19.451-38.126-70.3-47.748-102.357-19.322-14.891,13.205-22.309,29.862-22.4,49.709-.16,34.485-.188,68.972-.27,103.457,0,1.788,0,3.575,0,5.576h-37.51C371.245,336.7,371.245,320.1,371.245,303Z" fill="#e75314"/>
            <path id="Pfad_5" data-name="Pfad 5" d="M733.567,285.418c11.859,14.619,27.324,22.984,44.619,28.241,3.388,1.03,7.269.547,10.924.565,11.666.057,23.333.105,35-.033,3.231-.038,4.822.544,4.731,4.334-.247,10.327-.1,20.664-.072,31,.006,2.28.154,4.37-3.2,4.259-18.941-.625-38.116.5-56.774-2.109-28.741-4.012-51.563-19.4-68.6-43-14.1-19.532-20.225-41.42-20.048-65.5.283-38.491-.071-76.987-.149-115.481-.014-6.977,0-13.954,0-21.313h39.619v41.392h109.12c0,12.239.049,23.862-.1,35.482-.011.834-1.368,2.032-2.34,2.375-1.188.419-2.632.12-3.965.12H719.755c0,2.129-.007,3.894,0,5.659.081,18.828.026,37.658.295,56.484A59.246,59.246,0,0,0,733.567,285.418Z" fill="#e75314"/>
            <path id="Pfad_6" data-name="Pfad 6" d="M11.614,405.721c-3.075.021-5.7.021-8.56.021V368.586c9.648-2.443,19.346-3.656,28-7.326,25.249-10.706,38.4-30.472,38.838-57.871.525-32.631.3-65.274.34-97.912.015-12.44-3.064-16.527-15.013-20.242V144.941c15.772.55,29.045,6.266,39.572,17.844,9.97,10.965,14.118,24.329,14.152,38.889.086,36.135.75,72.3-.452,108.4-1.032,30.994-15.711,55.736-40.373,74.436C51.552,397.07,32.559,403.414,11.614,405.721Z" fill="#e75213"/>
            <path id="Pfad_7" data-name="Pfad 7" d="M1116.676,345.784c-9.687,5.176-19.51,8.207-30.286,8.017-11.951-.211-23.909-.048-36.125-.048V314.247h11.227c7.33,0,14.682-.354,21.987.073,15.7.919,20.225-8.228,20.3-20.215.209-32.479.149-64.96.546-97.436.167-13.684,3.51-26.75,11.9-37.852,9.736-12.884,23.494-18.912,39.193-19.805,13.278-.755,26.634-.156,40.366-.156V178.2q-16.856,0-33.771.012a31.12,31.12,0,0,0-5.956.3c-8.694,1.729-13.223,7.972-13.3,18.312-.215,30.635-.067,61.277-.747,91.9a133.468,133.468,0,0,1-4.154,29.4C1134.889,329.924,1127.59,339.2,1116.676,345.784Z" fill="#e75314"/>
            <path id="Pfad_8" data-name="Pfad 8" d="M1367.086,91.048c-2.9,28.236-26.054,51.661-55.4,55.8-14.5,2.045-12.328,4.218-21.308-11.514a88.626,88.626,0,0,1,22.783-114.248c15.213-11.78,32.6-17.469,51.61-18.792,3.14-.218,2.995,1.78,2.991,3.875q-.026,13.25-.007,26.5c0,15.833.035,31.666-.027,47.5C1367.711,83.648,1367.351,87.127,1367.086,91.048Z" fill="#e75213"/>
            <path id="Pfad_9" data-name="Pfad 9" d="M615.334,353.758c-3.9.341-3.069-2.2-3.073-4.008-.035-15.165,0-30.33-.024-45.5-.049-33.66.043-67.321-.271-100.979-.1-11.064-3.809-14.992-14.709-17.837V145.268c22.618-1.458,46.865,17.546,51.516,40.55a94.36,94.36,0,0,1,1.9,18.283c.152,47.828.084,95.656.084,143.484v6.173Z" fill="#e75416"/>
            <path id="Pfad_10" data-name="Pfad 10" d="M1425.754,157.781c-23.722,19.583-50.237,25.882-80.168,19.179,7.291-4.748,14.633-8.83,21.19-13.924,26.818-20.834,39.936-48.51,40.016-82.4.05-21.156.009-42.312.009-63.468,0-1.8,0-3.59,0-6.09a84.5,84.5,0,0,1,27.824,21.444C1466.282,69.537,1462.943,124.624,1425.754,157.781Z" fill="#e75213"/>
            <path id="Pfad_11" data-name="Pfad 11" d="M648.659,126.412c-5.28,9.686-14.892,14.406-24.308,12.181-9.365-2.213-16.912-11.439-17.1-20.907-.171-8.479,5.151-17.185,12.726-20.484,8.653-3.77,16.611-2.258,23.651,3.807a21.384,21.384,0,0,1,5.863,23.191C649.273,124.825,649.058,125.45,648.659,126.412Z" fill="#e75415"/>
            <path id="Pfad_12" data-name="Pfad 12" d="M69.588,104.7c7.374-9.775,18.948-12.2,28.907-6.308a21.873,21.873,0,0,1,8.621,27.463c-4.566,10.376-15.484,15.643-26.359,12.076C64.6,132.628,62.359,114.519,69.588,104.7Z" fill="#e75315"/>
            <path id="Pfad_13" data-name="Pfad 13" d="M773.507,421.783c.248,9.916.248,19.523.248,29.656l-5.015.231c0-7.523.067-14.629-.03-21.733-.046-3.368.717-7.533-4.476-7.851-3.917-.24-8.2,4.524-8.211,8.741-.019,6.782-.005,13.565-.005,20.57h-5.7c0-7.538.056-14.81-.027-22.081-.035-3.05.587-6.79-4.141-6.982-4.1-.167-8.094,3.645-8.118,7.532-.044,7.116-.013,14.233-.013,21.575h-5.463V418.228l4.074-1.132,1.743,3.96c5.866-4.284,11.726-6.855,16.917.74C764.916,415.4,768.565,415.352,773.507,421.783Z" fill="#097092"/>
            <path id="Pfad_14" data-name="Pfad 14" d="M479.7,419.012c0,6.66-.111,12.827.034,18.987.164,6.99,2.6,9.055,10.113,8.972,6.07-.067,8.4-2.479,8.433-9.023.058-10.631.016-21.263.016-32.267h5.714c0,12.632.02,25.087-.039,37.542a6.67,6.67,0,0,1-.892,2.835c-2.569,5-11.236,7.555-19.736,5.877a11.88,11.88,0,0,1-9.525-11.755c-.191-10.824-.08-21.653-.071-32.48a14.035,14.035,0,0,1,.362-2.143H479.7C479.7,409.972,479.7,414.244,479.7,419.012Z" fill="#0f7394"/>
            <path id="Pfad_15" data-name="Pfad 15" d="M976.873,443.007c-4.451-11.442-5.293-22.457,2.7-32.2,6.434-7.846,18.036-8.035,25.864-1.095l-2.144,3.079c-.531-.027-.908.068-1.141-.074-10.659-6.493-19.248-2.928-21.194,9.518a44.889,44.889,0,0,0,.821,16.607c1.582,6.874,11.031,10.6,17.375,7.534a4.051,4.051,0,0,0,1.747-2.959c.213-3.618.082-7.257.082-11.2h-8.46l-1.9-4.946h16.028c0,6.676.705,13.547-.425,20.1-.344,2-5.61,3.958-8.855,4.478C989.072,453.178,981.94,450.617,976.873,443.007Z" fill="#086f91"/>
            <path id="Pfad_16" data-name="Pfad 16" d="M715.414,423.71c-7.222-2.793-13.134,1.176-13.161,8.308-.024,6.309-.005,12.618-.005,19.284H696.7V403.409l5.351-1.192v17.695c5.016-.825,9.409-2.163,13.774-2.081,3.852.073,6.111,3.179,6.161,7.165.107,8.636.033,17.274.033,26.421l-5.271.234c0-7.374.078-14.327-.047-21.278A28.194,28.194,0,0,0,715.414,423.71Z" fill="#066e90"/>
            <path id="Pfad_17" data-name="Pfad 17" d="M874.032,418.85c4.875-.321,9.394-.52,14.331-.737v-15.12h5.831v48.514c.277-.223.1,0,.025-.032-5.163-2.078-10.17.527-15.234.452a11.41,11.41,0,0,1-10.866-7.313c-3.346-7.849-2.6-20.748,5.912-25.766M885.21,445.8c1.035-2.046,2.634-4,2.973-6.158.508-3.233-.1-6.627.194-9.913.347-3.845-.743-6.448-4.709-7.4s-7.859-.319-9.186,3.68a34.48,34.48,0,0,0-1.632,12.9C873.351,446.264,877.276,448.388,885.21,445.8Z" fill="#0c7293"/>
            <path id="Pfad_18" data-name="Pfad 18" d="M384.026,405.3h13.8v4.957H379.339v14.46h14.952l.489,5.065H379.364v16.442h19.368l.291,5.112H373.186V405.3Z" fill="#0e7294"/>
            <path id="Pfad_19" data-name="Pfad 19" d="M1074.292,429c0-8.794,0-17.089,0-25.746l5.163-.828v18.926c5.527-2.294,9.961-6.487,15.109-3.171,2.343,1.51,5.026,4.5,5.212,6.987.641,8.56.246,17.2.246,26.239l-5.731.271c0-7.409.089-14.344-.037-21.276-.064-3.52.705-7.887-4.856-8.06-4.7-.146-9.336,4.37-9.358,8.878-.033,6.625-.008,13.25-.008,20.176h-5.74Z" fill="#117495"/>
            <path id="Pfad_20" data-name="Pfad 20" d="M1121.225,422.019c-3.36.943-6.3,1.884-9.781,3l-3.432-4.345c5.751-1.365,10.6-3.123,15.554-3.535,5.834-.484,9.231,3.128,9.426,9.006.181,5.472-.014,10.955.056,16.432.018,1.445-.09,3.33.725,4.236,1.769,1.967,1.688,3.857-.244,4.858-.955.5-2.968-.958-4.453-1.637-.394-.18-.607-.757-.477-.584-3.723,1.03-6.9,2.436-10.167,2.693-5.359.422-9.422-2.51-10.367-6.611-1.25-5.422.951-10.618,6.207-12.628,4.052-1.55,8.5-2.049,12.886-3.04,1.187-5.978.241-7.381-5.932-7.844m-6.073,24.241c3.174,2.995,6.467,2.1,9.483-.052,4.241-3.021,2.487-7.3,2.377-11.237C1116.243,434.183,1112.763,437.307,1115.152,446.261Z" fill="#097092"/>
            <path id="Pfad_21" data-name="Pfad 21" d="M1165.611,436.02h-17.4c-.566,4.563.552,8.248,4.354,10.169,4.313,2.18,8.716,1.6,12.731-1.615,3.106,2.326,2.647,4.091-.637,5.691-9.882,4.812-21.891.562-22.794-12.36-.422-6.038-.561-12.017,4.205-16.793,3.736-3.743,8.045-5.053,13.177-3.491,5.329,1.621,8.731,5.036,8.8,10.695.032,2.557,3.288,6.382-2.44,7.7m-17.356-5.252,14.182.725c-.33-7.86-3.338-10.849-8.932-9.528C1149.29,422.96,1148.851,426.566,1148.255,430.768Z" fill="#0b7192"/>
            <path id="Pfad_22" data-name="Pfad 22" d="M782.47,435.7c.146-5.964.779-11.391,5.368-15.34,3.82-3.287,8.113-4.4,12.945-2.55,4.676,1.788,7.865,4.815,8.254,10.125.188,2.56.431,5.115.681,8.045H789.259c-.669,4.173.182,7.657,3.547,9.781,4.518,2.852,9.143,1.948,13.393-1,3.174,2.249,2.656,3.929-.382,5.438-9.129,4.533-22.54,1.952-23.348-14.5m13.177-13.985c-4.911,1.327-6.487,3.712-6.1,9.2h14.183C803.239,425.94,802.188,421.939,795.647,421.718Z" fill="#0b7192"/>
            <path id="Pfad_23" data-name="Pfad 23" d="M927.517,436.006c-6.273.013-12.093.013-18.228.013-.767,4.126.233,7.56,3.562,9.651,4.521,2.839,9.168,2.261,13.47-1.112,2.779,2.132,2.848,3.969-.306,5.564-9.6,4.858-21.854,1.295-23.088-11.87-.615-6.562-.466-12.985,4.941-17.942a13.4,13.4,0,0,1,16.61-.874c4.219,2.958,6.585,11.627,4.39,16.222-.1.207-.59.227-1.351.348m-4.8-10.988c-2.182-3.707-6.039-4.4-9.008-2.658-2.491,1.465-3.722,5.072-6.124,8.642h16.2C923.474,429.04,923.215,427.423,922.72,425.018Z" fill="#0b7193"/>
            <path id="Pfad_24" data-name="Pfad 24" d="M681.826,446.221c1.9-.165,3.437-.165,5.988-.165-6.337,7.935-18.5,7.771-23.519.942-4.9-6.666-4.685-19.222.414-25.258,3.561-4.215,8.211-5.793,13.381-4.411,5.13,1.371,8.625,4.748,9.169,10.461.233,2.445.613,4.877,1,7.917H667.584c-.654,9.607,4.306,13.221,14.242,10.515m-7.3-24.527c-5.641,1.126-6.859,2.768-6.806,9.273h14.242C681.529,426.285,680.831,422.279,674.527,421.695Z" fill="#0c7193"/>
            <path id="Pfad_25" data-name="Pfad 25" d="M579.626,445.645c5.061,2.441,9.576,2.278,13.8-1.093,2.756,2.379,2.487,4.089-.563,5.649-8.087,4.137-19.964,2.1-22.334-9.194-1.436-6.844-1.7-13.563,3.083-19.315a12.279,12.279,0,0,1,13.413-4.268c5,1.389,8.394,4.567,9.008,10.044.292,2.6.523,5.208.855,8.555H574.758c1.785,3.726,3.148,6.571,4.868,9.623m10.08-20.658c-2.051-3.466-5.364-4-8.645-2.841-3.883,1.377-4.7,4.959-4.889,8.82h14.782C590.568,428.956,590.262,427.362,589.706,424.987Z" fill="#0b7193"/>
            <path id="Pfad_26" data-name="Pfad 26" d="M824.024,439.995V451.4l-5.571.332v-33.48c2.534-1.332,5-1.357,5.784,3.09,1.549-.992,2.746-1.849,4.024-2.561,7.869-4.386,14.863-.38,14.985,8.666.106,7.807.022,15.616.022,23.936l-5.538.328c0-5.357,0-10.3,0-15.235,0-2.665.156-5.342-.055-7.99-.24-3-.508-6.263-4.686-6.422-3.907-.148-8.832,3.665-8.937,6.945C823.939,432.505,824.025,436.005,824.024,439.995Z" fill="#0c7293"/>
            <path id="Pfad_27" data-name="Pfad 27" d="M1040.6,422.475c4.123,6.866,4.356,13.817,2,20.865-1.849,5.526-6.682,8.771-12.518,8.913-6.409.156-11.077-2.62-13.376-8.327a24.6,24.6,0,0,1,.4-19.749c3.848-8.751,17.963-9.987,23.494-1.7m-8.855,24.762c1.325-.935,2.952-1.63,3.917-2.85,2.78-3.511,2.917-16.4-.321-19.522a10.91,10.91,0,0,0-7.828-2.625c-2.012.215-4.93,2.738-5.364,4.7a37.026,37.026,0,0,0-.411,12.743C1022.6,446.014,1024.351,447.13,1031.749,447.237Z" fill="#086f91"/>
            <path id="Pfad_28" data-name="Pfad 28" d="M531.6,422.482c-8.054.153-10.562,2.7-10.572,10.116q-.012,8.736-.073,17.472a5.658,5.658,0,0,1-.541,1.356l-5.187.269v-33.3l4.017-1.224,1.949,3.923c4.3-2.432,8.412-6.22,13.331-3.014,2.411,1.571,5.05,4.75,5.259,7.385.668,8.431.248,16.947.248,25.832h-5.74c0-7.488.179-14.776-.108-22.046C534.1,427.044,532.724,424.887,531.6,422.482Z" fill="#117495"/>
            <path id="Pfad_29" data-name="Pfad 29" d="M445.979,420.183c.864,2.319,1.921,4.337,1.971,6.379.2,8.141.081,16.29.081,24.868l-5.737.31c0-4.967.04-9.565-.012-14.161-.043-3.824.188-7.716-.479-11.438-.278-1.547-2.46-3.724-3.976-3.9-4.976-.578-9.1,3.665-9.116,8.671-.02,6.644-.005,13.288-.005,20.356h-5.813V418.325l4.55-1.085,1.456,4C434.366,417.445,439.835,414.783,445.979,420.183Z" fill="#107495"/>
            <path id="Pfad_30" data-name="Pfad 30" d="M646.976,446.773c0-6.3-.059-12.123.021-17.946.049-3.53-.708-6.433-4.86-6.745-3.866-.291-8.771,3.622-8.828,7.1-.119,7.292-.036,14.586-.036,22.2l-5.458.379V418.322l3.824-1.364,1.911,4.141,3.175-1.843c9.624-5.591,16.913.538,16.1,9.641-.648,7.248-.131,14.6-.131,22.391l-5.41.513C647.169,450.107,647.072,448.677,646.976,446.773Z" fill="#0c7293"/>
            <path id="Pfad_31" data-name="Pfad 31" d="M1059.42,417.046a42.585,42.585,0,0,0,7.477,1.24c.139,6.141-5.126,2.911-7.865,4.663,0,6.777-.038,13.744.012,20.711.039,5.552,4.482,4.025,7.545,4.356,1.589,4.349-1.8,4.238-3.931,4.43-3.732.337-7.788-.13-8.674-4.605-.8-4.015-.565-8.246-.656-12.384s-.02-8.279-.02-11.086l-5.666-5.723,5.775-1.145.86-8.2,5.464-.6C1059.592,411.456,1059.453,414.016,1059.42,417.046Z" fill="#0c7293"/>
            <path id="Pfad_32" data-name="Pfad 32" d="M559.109,417.971c2.091.005,3.743.005,5.406.005.46,6.331-4.742,3.333-7.732,5,0,6.957-.2,14.224.19,21.459.067,1.249,2.568,2.452,4.063,3.511a35.565,35.565,0,0,0,3.781,2.075c-1.248.744-2.416,1.9-3.759,2.164-6.839,1.327-10.014-1.361-10.068-8.37-.054-6.958-.012-13.916-.012-19.529l-4.229-4.462,4.125-2.932c.87-3.078-1.31-8.98,5.434-8.206A73.861,73.861,0,0,0,559.109,417.971Z" fill="#0b7193"/>
            <path id="Pfad_33" data-name="Pfad 33" d="M605.728,424.132c-.311-2.1-.6-3.718-.945-5.6l5.05-1.551,1.462,3.564,11.135-4.781c-1.195,4.365-.942,7.116-5.31,7.533-3.734.357-5.944,3.274-5.894,7.447.082,6.8.022,13.6.022,20.656h-5.5C605.746,442.441,605.746,433.526,605.728,424.132Z" fill="#066e90"/>
            <path id="Pfad_34" data-name="Pfad 34" d="M951.939,422.986c-5.563.632-7.891,3.464-7.736,8.726.191,6.447.046,12.9.046,19.652h-5.668V418.21L942.7,417.1l1.544,3.44,10.117-4.256,1.118,1.548A41.4,41.4,0,0,1,951.939,422.986Z" fill="#066e90"/>
            <path id="Pfad_35" data-name="Pfad 35" d="M1177.75,429.075c-.277-3.771-.555-7.057-.856-10.63l4.767-1.39,1.6,3.269,11.014-4.344c-.991,4.563-1.663,6.926-5.817,7.523-3.687.53-5.548,3.76-5.477,7.818.116,6.607.031,13.217.031,20.08h-5.264C1177.749,444.055,1177.749,436.808,1177.75,429.075Z" fill="#076e90"/>
            <path id="Pfad_36" data-name="Pfad 36" d="M412.21,441.953v9.3h-5.125V418.28l5.125-1.262C412.21,425.323,412.21,433.392,412.21,441.953Z" fill="#046c8f"/>
            <path id="Pfad_37" data-name="Pfad 37" d="M410.707,411.907c-2.033-1.167-4.168-2.153-5.105-3.814-.374-.663,1.677-3.716,3.023-4.044,1.381-.337,4.583,1.259,4.628,2.13C413.346,408.016,411.9,409.932,410.707,411.907Z" fill="#0c7293"/>
            <path id="Pfad_38" data-name="Pfad 38" d="M185.987,297.018c-28.4-30.506-23.656-79.378,9.614-103.871C234.237,164.7,290.6,182.6,304.648,231.475a48.491,48.491,0,0,1,2.061,12.738c.207,21.3.095,42.6.095,64.59-8.819,0-17.6-.306-26.335.131a33.92,33.92,0,0,0-12.753,2.894C239.808,325.257,208.685,319.863,185.987,297.018Z" fill="none"/>
            <path id="Pfad_39" data-name="Pfad 39" d="M982.2,306.253c-23.708,15.593-48.284,17.479-72.938,4.385-23.88-12.682-36.312-33.459-37.456-60.572-1.4-33.179,24.907-64.692,58.217-70.094,37.166-6.028,71.936,17.2,80.358,53.675C1016.68,260.923,1005.858,289.03,982.2,306.253Z" fill="none"/>
            <path id="Pfad_40" data-name="Pfad 40" d="M884.813,445.926c-7.538,2.462-11.462.338-11.963-7.015a34.48,34.48,0,0,1,1.632-12.9c1.327-4,5.225-4.632,9.186-3.68s5.056,3.555,4.709,7.4c-.3,3.287.315,6.68-.194,9.913C887.844,441.8,886.245,443.753,884.813,445.926Z" fill="none"/>
            <path id="Pfad_41" data-name="Pfad 41" d="M1114.938,445.912c-2.176-8.6,1.3-11.729,12.074-10.941.11,3.938,1.864,8.217-2.377,11.237C1121.619,448.356,1118.326,449.255,1114.938,445.912Z" fill="none"/>
            <path id="Pfad_42" data-name="Pfad 42" d="M1148.157,430.343c.693-3.777,1.133-7.383,5.347-8.378,5.594-1.321,8.6,1.668,8.932,9.528C1157.68,431.249,1152.968,431.009,1148.157,430.343Z" fill="none"/>
            <path id="Pfad_43" data-name="Pfad 43" d="M796.06,421.7c6.129.236,7.179,4.236,7.675,9.217H789.551C789.16,425.43,790.736,423.045,796.06,421.7Z" fill="none"/>
            <path id="Pfad_44" data-name="Pfad 44" d="M922.838,425.413c.377,2.011.636,3.627.95,5.589h-16.2c2.4-3.57,3.633-7.177,6.124-8.642C916.681,420.614,920.539,421.311,922.838,425.413Z" fill="none"/>
            <path id="Pfad_45" data-name="Pfad 45" d="M674.941,421.709c5.89.569,6.588,4.576,7.022,9.258H667.721C667.669,424.462,668.886,422.821,674.941,421.709Z" fill="none"/>
            <path id="Pfad_46" data-name="Pfad 46" d="M589.831,425.378c.431,1.985.737,3.579,1.123,5.588H576.172c.192-3.86,1.006-7.442,4.889-8.82C584.342,420.982,587.654,421.521,589.831,425.378Z" fill="none"/>
            <path id="Pfad_47" data-name="Pfad 47" d="M1031.4,447.389c-7.051-.259-8.8-1.375-9.661-7.708a37.026,37.026,0,0,1,.411-12.743c.434-1.96,3.352-4.483,5.364-4.7a10.91,10.91,0,0,1,7.828,2.625c3.238,3.118,3.1,16.011.321,19.522C1034.7,445.607,1033.073,446.3,1031.4,447.389Z" fill="none"/>
        </g>
    </g>
</svg>